<svg xmlns="http://www.w3.org/2000/svg" version="1.1" xmlns:xlink="http://www.w3.org/1999/xlink" xmlns:svgjs="http://svgjs.dev/svgjs" width="100%" height="100%" viewBox="0 0 1000 600"><rect width="1000" height="600" x="0" y="0" fill="#e2d3f4"/><g><circle r="166.66666666666666" cx="316.54726664225257" cy="338.7695239542636" fill="#800020" transform="matrix(0.8339969405180594,0,0,0.8339969405180594,0,17.46723842102216)"/><path d="M358.21059891255493 413.7695257252371L241.54727582666527 413.7695257252371L241.54727582666527 397.1162196212477L258.20058193065466 397.1162196212477L258.20058193065466 280.452896535358L241.54727582666527 280.452896535358L241.54727582666527 263.7695303120473L358.21059891255493 263.7695303120473L358.21059891255493 280.452896535358L374.8639050165444 280.452896535358L374.8639050165444 313.7895688626581L391.54727123985504 313.7895688626581L391.54727123985504 380.432853397937L374.8639050165444 380.432853397937L374.8639050165444 397.1162196212477L358.21059891255493 397.1162196212477L358.21059891255493 413.7695257252371ZM308.2206204812654 397.1162196212477L324.8739265852549 397.1162196212477L324.8739265852549 380.432853397937L341.52723268924433 380.432853397937L341.52723268924433 313.7895688626581L324.8739265852549 313.7895688626581L324.8739265852549 297.1062026393474L308.2206204812654 297.1062026393474L308.2206204812654 397.1162196212477Z " fill="#e2d3f4" transform="matrix(0.8339969405180594,0,0,0.8339969405180594,0,17.46723842102216)"/><path d="M580.1746939023238 386.51468556780026L566.5472758266652 386.51468556780026L566.5472758266652 318.3283987343604L580.1746939023238 318.3283987343604L580.1746939023238 304.6763824311284L634.733562660105 304.6763824311284L634.733562660105 318.3283987343604L648.3609807357636 318.3283987343604L648.3609807357636 345.5832348856776L662.0129970389958 345.5832348856776L662.0129970389958 359.2352511889096L607.4541282812145 359.2352511889096L607.4541282812145 386.51468556780026L621.1061445844464 386.51468556780026L621.1061445844464 372.86266926456824L648.3609807357636 372.86266926456824L648.3609807357636 400.1421036434588L621.1061445844464 400.1421036434588L621.1061445844464 413.76952171911745L607.4541282812145 413.76952171911745L607.4541282812145 400.1421036434588L580.1746939023238 400.1421036434588L580.1746939023238 386.51468556780026ZM607.4541282812145 345.5832348856776L621.1061445844464 345.5832348856776L621.1061445844464 331.955816810019L607.4541282812145 331.955816810019L607.4541282812145 345.5832348856776ZM675.6404151146544 386.51468556780026L662.0129970389958 386.51468556780026L662.0129970389958 318.3283987343604L675.6404151146544 318.3283987343604L675.6404151146544 304.6763824311284L743.8267019480942 304.6763824311284L743.8267019480942 345.5832348856776L716.5472675692035 345.5832348856776L716.5472675692035 331.955816810019L702.9198494935449 331.955816810019L702.9198494935449 386.51468556780026L716.5472675692035 386.51468556780026L716.5472675692035 372.86266926456824L743.8267019480942 372.86266926456824L743.8267019480942 400.1421036434588L716.5472675692035 400.1421036434588L716.5472675692035 413.76952171911745L689.2924314178863 413.76952171911745L689.2924314178863 400.1421036434588L675.6404151146544 400.1421036434588L675.6404151146544 386.51468556780026ZM790.046771558496 345.5832348856776L803.6987878617279 345.5832348856776L803.6987878617279 331.955816810019L790.046771558496 331.955816810019L790.046771558496 345.5832348856776ZM803.6987878617279 359.2352511889096L790.046771558496 359.2352511889096L790.046771558496 372.86266926456824L803.6987878617279 372.86266926456824L803.6987878617279 359.2352511889096ZM776.4193534828373 400.1421036434588L749.1399191039467 400.1421036434588L749.1399191039467 359.2352511889096L762.7919354071787 359.2352511889096L762.7919354071787 331.955816810019L749.1399191039467 331.955816810019L749.1399191039467 318.3283987343604L762.7919354071787 318.3283987343604L762.7919354071787 304.6763824311284L817.3262059373865 304.6763824311284L817.3262059373865 318.3283987343604L830.9782222406186 318.3283987343604L830.9782222406186 386.51468556780026L844.6056403162771 386.51468556780026L844.6056403162771 400.1421036434588L790.046771558496 400.1421036434588L790.046771558496 413.76952171911745L776.4193534828373 413.76952171911745L776.4193534828373 400.1421036434588ZM871.8850746951678 400.1421036434588L844.6056403162771 400.1421036434588L844.6056403162771 318.3283987343604L858.2330583919357 318.3283987343604L858.2330583919357 304.6763824311284L899.1645090740583 304.6763824311284L899.1645090740583 291.04896435546976L885.5124927708264 291.04896435546976L885.5124927708264 263.7695299765791L940.0713615286076 263.7695299765791L940.0713615286076 386.51468556780026L953.6987796042663 386.51468556780026L953.6987796042663 400.1421036434588L899.1645090740583 400.1421036434588L899.1645090740583 413.76952171911745L871.8850746951678 413.76952171911745L871.8850746951678 400.1421036434588ZM885.5124927708264 386.51468556780026L899.1645090740583 386.51468556780026L899.1645090740583 331.955816810019L885.5124927708264 331.955816810019L885.5124927708264 386.51468556780026ZM967.3507959074982 386.51468556780026L953.6987796042663 386.51468556780026L953.6987796042663 318.3283987343604L967.3507959074982 318.3283987343604L967.3507959074982 304.6763824311284L1021.8850664377061 304.6763824311284L1021.8850664377061 318.3283987343604L1035.537082740938 318.3283987343604L1035.537082740938 345.5832348856776L1049.1645008165967 345.5832348856776L1049.1645008165967 359.2352511889096L994.6056320588154 359.2352511889096L994.6056320588154 386.51468556780026L1008.2576483620475 386.51468556780026L1008.2576483620475 372.86266926456824L1035.537082740938 372.86266926456824L1035.537082740938 400.1421036434588L1008.2576483620475 400.1421036434588L1008.2576483620475 413.76952171911745L994.6056320588154 413.76952171911745L994.6056320588154 400.1421036434588L967.3507959074982 400.1421036434588L967.3507959074982 386.51468556780026ZM994.6056320588154 345.5832348856776L1008.2576483620475 345.5832348856776L1008.2576483620475 331.955816810019L994.6056320588154 331.955816810019L994.6056320588154 345.5832348856776Z " fill="#800020" transform="matrix(0.8339969405180594,0,0,0.8339969405180594,0,17.46723842102216)"/></g></svg>